<mxfile host="app.diagrams.net" modified="2023-03-08T12:00:53.938Z" agent="5.0 (Windows)" etag="OHBUEhS2Fclz_Zqg1QpV" version="20.8.23" type="github">
  <diagram name="Page-1" id="rdmQYj4Cs7jWOs6_GkxZ">
    <mxGraphModel dx="989" dy="547" grid="1" gridSize="10" guides="1" tooltips="1" connect="1" arrows="1" fold="1" page="1" pageScale="1" pageWidth="827" pageHeight="1169" math="0" shadow="0">
      <root>
        <mxCell id="0" />
        <mxCell id="1" parent="0" />
        <mxCell id="GBjzqEbFsssH7kwa6L_I-11" style="edgeStyle=orthogonalEdgeStyle;rounded=0;orthogonalLoop=1;jettySize=auto;html=1;entryX=0;entryY=0.5;entryDx=0;entryDy=0;" parent="1" source="GBjzqEbFsssH7kwa6L_I-1" target="GBjzqEbFsssH7kwa6L_I-10" edge="1">
          <mxGeometry relative="1" as="geometry" />
        </mxCell>
        <mxCell id="GBjzqEbFsssH7kwa6L_I-13" style="edgeStyle=orthogonalEdgeStyle;rounded=0;orthogonalLoop=1;jettySize=auto;html=1;entryX=0;entryY=0.5;entryDx=0;entryDy=0;" parent="1" source="GBjzqEbFsssH7kwa6L_I-1" target="GBjzqEbFsssH7kwa6L_I-12" edge="1">
          <mxGeometry relative="1" as="geometry" />
        </mxCell>
        <mxCell id="GBjzqEbFsssH7kwa6L_I-25" style="edgeStyle=orthogonalEdgeStyle;rounded=0;orthogonalLoop=1;jettySize=auto;html=1;entryX=0;entryY=0.5;entryDx=0;entryDy=0;" parent="1" target="GBjzqEbFsssH7kwa6L_I-24" edge="1">
          <mxGeometry relative="1" as="geometry">
            <mxPoint x="115" y="310" as="sourcePoint" />
            <mxPoint x="275" y="506" as="targetPoint" />
            <Array as="points">
              <mxPoint x="195" y="310" />
              <mxPoint x="195" y="506" />
            </Array>
          </mxGeometry>
        </mxCell>
        <mxCell id="GBjzqEbFsssH7kwa6L_I-1" value="Actor" style="shape=umlActor;verticalLabelPosition=bottom;verticalAlign=top;html=1;outlineConnect=0;overflow=visible;noLabel=1;" parent="1" vertex="1">
          <mxGeometry x="80" y="280" width="30" height="60" as="geometry" />
        </mxCell>
        <mxCell id="GBjzqEbFsssH7kwa6L_I-2" value="Utilisateur" style="text;html=1;strokeColor=none;fillColor=none;align=center;verticalAlign=middle;whiteSpace=wrap;rounded=0;" parent="1" vertex="1">
          <mxGeometry x="70" y="340" width="60" height="30" as="geometry" />
        </mxCell>
        <mxCell id="GBjzqEbFsssH7kwa6L_I-3" value="" style="edgeStyle=orthogonalEdgeStyle;rounded=0;orthogonalLoop=1;jettySize=auto;html=1;dashed=1;" parent="1" source="GBjzqEbFsssH7kwa6L_I-4" edge="1">
          <mxGeometry relative="1" as="geometry">
            <mxPoint x="76" y="425" as="sourcePoint" />
            <mxPoint x="96" y="366" as="targetPoint" />
          </mxGeometry>
        </mxCell>
        <mxCell id="GBjzqEbFsssH7kwa6L_I-4" value="Élève" style="text;html=1;strokeColor=none;fillColor=none;align=center;verticalAlign=middle;whiteSpace=wrap;rounded=0;" parent="1" vertex="1">
          <mxGeometry x="30" y="409" width="46" height="30" as="geometry" />
        </mxCell>
        <mxCell id="GBjzqEbFsssH7kwa6L_I-5" value="" style="edgeStyle=orthogonalEdgeStyle;rounded=0;orthogonalLoop=1;jettySize=auto;html=1;dashed=1;exitX=0;exitY=0.5;exitDx=0;exitDy=0;" parent="1" source="GBjzqEbFsssH7kwa6L_I-6" edge="1">
          <mxGeometry relative="1" as="geometry">
            <mxPoint x="116" y="431" as="sourcePoint" />
            <mxPoint x="96" y="366" as="targetPoint" />
          </mxGeometry>
        </mxCell>
        <mxCell id="GBjzqEbFsssH7kwa6L_I-6" value="Bénévole" style="text;html=1;strokeColor=none;fillColor=none;align=center;verticalAlign=middle;whiteSpace=wrap;rounded=0;" parent="1" vertex="1">
          <mxGeometry x="116" y="409" width="64" height="30" as="geometry" />
        </mxCell>
        <mxCell id="GBjzqEbFsssH7kwa6L_I-16" value="" style="edgeStyle=orthogonalEdgeStyle;rounded=0;orthogonalLoop=1;jettySize=auto;html=1;dashed=1;" parent="1" source="GBjzqEbFsssH7kwa6L_I-10" target="GBjzqEbFsssH7kwa6L_I-14" edge="1">
          <mxGeometry relative="1" as="geometry">
            <Array as="points">
              <mxPoint x="460" y="310" />
              <mxPoint x="460" y="310" />
            </Array>
          </mxGeometry>
        </mxCell>
        <mxCell id="GBjzqEbFsssH7kwa6L_I-19" style="edgeStyle=orthogonalEdgeStyle;rounded=0;orthogonalLoop=1;jettySize=auto;html=1;entryX=0;entryY=0.5;entryDx=0;entryDy=0;dashed=1;" parent="1" source="GBjzqEbFsssH7kwa6L_I-10" target="GBjzqEbFsssH7kwa6L_I-17" edge="1">
          <mxGeometry relative="1" as="geometry" />
        </mxCell>
        <mxCell id="GBjzqEbFsssH7kwa6L_I-10" value="Consulter" style="ellipse;whiteSpace=wrap;html=1;" parent="1" vertex="1">
          <mxGeometry x="280" y="284" width="120" height="52" as="geometry" />
        </mxCell>
        <mxCell id="GBjzqEbFsssH7kwa6L_I-22" style="edgeStyle=orthogonalEdgeStyle;rounded=0;orthogonalLoop=1;jettySize=auto;html=1;dashed=1;" parent="1" source="GBjzqEbFsssH7kwa6L_I-12" target="GBjzqEbFsssH7kwa6L_I-21" edge="1">
          <mxGeometry relative="1" as="geometry" />
        </mxCell>
        <mxCell id="GBjzqEbFsssH7kwa6L_I-23" style="edgeStyle=orthogonalEdgeStyle;rounded=0;orthogonalLoop=1;jettySize=auto;html=1;entryX=0;entryY=0.5;entryDx=0;entryDy=0;dashed=1;" parent="1" source="GBjzqEbFsssH7kwa6L_I-12" target="GBjzqEbFsssH7kwa6L_I-20" edge="1">
          <mxGeometry relative="1" as="geometry" />
        </mxCell>
        <mxCell id="GBjzqEbFsssH7kwa6L_I-40" style="edgeStyle=orthogonalEdgeStyle;rounded=0;orthogonalLoop=1;jettySize=auto;html=1;entryX=0.5;entryY=0;entryDx=0;entryDy=0;dashed=1;" parent="1" source="GBjzqEbFsssH7kwa6L_I-12" target="GBjzqEbFsssH7kwa6L_I-14" edge="1">
          <mxGeometry relative="1" as="geometry">
            <Array as="points">
              <mxPoint x="340" y="250" />
              <mxPoint x="540" y="250" />
            </Array>
          </mxGeometry>
        </mxCell>
        <mxCell id="GBjzqEbFsssH7kwa6L_I-41" style="edgeStyle=orthogonalEdgeStyle;rounded=0;orthogonalLoop=1;jettySize=auto;html=1;dashed=1;entryX=1;entryY=0;entryDx=0;entryDy=0;" parent="1" target="GBjzqEbFsssH7kwa6L_I-17" edge="1">
          <mxGeometry relative="1" as="geometry">
            <Array as="points">
              <mxPoint x="340" y="228" />
              <mxPoint x="620" y="228" />
              <mxPoint x="620" y="348" />
              <mxPoint x="580" y="348" />
              <mxPoint x="580" y="360" />
              <mxPoint x="582" y="360" />
            </Array>
            <mxPoint x="340" y="190" as="sourcePoint" />
            <mxPoint x="582.426406871193" y="375.61522368914984" as="targetPoint" />
          </mxGeometry>
        </mxCell>
        <mxCell id="GBjzqEbFsssH7kwa6L_I-12" value="Créer" style="ellipse;whiteSpace=wrap;html=1;" parent="1" vertex="1">
          <mxGeometry x="280" y="140" width="120" height="52" as="geometry" />
        </mxCell>
        <mxCell id="GBjzqEbFsssH7kwa6L_I-14" value="Message" style="ellipse;whiteSpace=wrap;html=1;" parent="1" vertex="1">
          <mxGeometry x="480" y="284" width="120" height="52" as="geometry" />
        </mxCell>
        <mxCell id="zAWTuySF6jtsqshDQRT_-4" style="edgeStyle=orthogonalEdgeStyle;rounded=0;orthogonalLoop=1;jettySize=auto;html=1;dashed=1;" edge="1" parent="1" source="GBjzqEbFsssH7kwa6L_I-17" target="GBjzqEbFsssH7kwa6L_I-14">
          <mxGeometry relative="1" as="geometry" />
        </mxCell>
        <mxCell id="GBjzqEbFsssH7kwa6L_I-17" value="Conversion" style="ellipse;whiteSpace=wrap;html=1;" parent="1" vertex="1">
          <mxGeometry x="480" y="370" width="120" height="52" as="geometry" />
        </mxCell>
        <mxCell id="GBjzqEbFsssH7kwa6L_I-37" value="" style="edgeStyle=orthogonalEdgeStyle;rounded=0;orthogonalLoop=1;jettySize=auto;html=1;dashed=1;" parent="1" source="GBjzqEbFsssH7kwa6L_I-20" target="GBjzqEbFsssH7kwa6L_I-21" edge="1">
          <mxGeometry relative="1" as="geometry" />
        </mxCell>
        <mxCell id="GBjzqEbFsssH7kwa6L_I-20" value="Nouveau message" style="ellipse;whiteSpace=wrap;html=1;" parent="1" vertex="1">
          <mxGeometry x="470" y="60" width="120" height="52" as="geometry" />
        </mxCell>
        <mxCell id="GBjzqEbFsssH7kwa6L_I-21" value="Nouvelle conversion" style="ellipse;whiteSpace=wrap;html=1;" parent="1" vertex="1">
          <mxGeometry x="470" y="140" width="120" height="52" as="geometry" />
        </mxCell>
        <mxCell id="GBjzqEbFsssH7kwa6L_I-28" value="" style="edgeStyle=orthogonalEdgeStyle;rounded=0;orthogonalLoop=1;jettySize=auto;html=1;dashed=1;" parent="1" source="GBjzqEbFsssH7kwa6L_I-24" target="GBjzqEbFsssH7kwa6L_I-26" edge="1">
          <mxGeometry relative="1" as="geometry" />
        </mxCell>
        <mxCell id="GBjzqEbFsssH7kwa6L_I-30" style="edgeStyle=orthogonalEdgeStyle;rounded=0;orthogonalLoop=1;jettySize=auto;html=1;entryX=0;entryY=0.67;entryDx=0;entryDy=0;entryPerimeter=0;dashed=1;" parent="1" source="GBjzqEbFsssH7kwa6L_I-24" target="GBjzqEbFsssH7kwa6L_I-29" edge="1">
          <mxGeometry relative="1" as="geometry" />
        </mxCell>
        <mxCell id="GBjzqEbFsssH7kwa6L_I-24" value="Contact" style="ellipse;whiteSpace=wrap;html=1;" parent="1" vertex="1">
          <mxGeometry x="270" y="480" width="120" height="52" as="geometry" />
        </mxCell>
        <mxCell id="GBjzqEbFsssH7kwa6L_I-26" value="Ajouter un contact" style="ellipse;whiteSpace=wrap;html=1;" parent="1" vertex="1">
          <mxGeometry x="470" y="480" width="120" height="52" as="geometry" />
        </mxCell>
        <mxCell id="GBjzqEbFsssH7kwa6L_I-29" value="Supprimer un contact" style="ellipse;whiteSpace=wrap;html=1;" parent="1" vertex="1">
          <mxGeometry x="470" y="570" width="120" height="52" as="geometry" />
        </mxCell>
        <mxCell id="GBjzqEbFsssH7kwa6L_I-33" style="edgeStyle=orthogonalEdgeStyle;rounded=0;orthogonalLoop=1;jettySize=auto;html=1;entryX=1;entryY=0.5;entryDx=0;entryDy=0;dashed=1;" parent="1" source="GBjzqEbFsssH7kwa6L_I-31" target="GBjzqEbFsssH7kwa6L_I-20" edge="1">
          <mxGeometry relative="1" as="geometry" />
        </mxCell>
        <mxCell id="GBjzqEbFsssH7kwa6L_I-36" style="edgeStyle=orthogonalEdgeStyle;rounded=0;orthogonalLoop=1;jettySize=auto;html=1;entryX=1;entryY=0.5;entryDx=0;entryDy=0;dashed=1;" parent="1" source="GBjzqEbFsssH7kwa6L_I-31" target="GBjzqEbFsssH7kwa6L_I-21" edge="1">
          <mxGeometry relative="1" as="geometry">
            <Array as="points">
              <mxPoint x="850" y="86" />
              <mxPoint x="850" y="220" />
              <mxPoint x="660" y="220" />
              <mxPoint x="660" y="166" />
            </Array>
          </mxGeometry>
        </mxCell>
        <mxCell id="GBjzqEbFsssH7kwa6L_I-31" value="Ajouter un destinataire" style="ellipse;whiteSpace=wrap;html=1;" parent="1" vertex="1">
          <mxGeometry x="690" y="60" width="120" height="52" as="geometry" />
        </mxCell>
        <mxCell id="GBjzqEbFsssH7kwa6L_I-34" style="edgeStyle=orthogonalEdgeStyle;rounded=0;orthogonalLoop=1;jettySize=auto;html=1;entryX=1;entryY=0.5;entryDx=0;entryDy=0;exitX=0.5;exitY=0;exitDx=0;exitDy=0;dashed=1;" parent="1" source="GBjzqEbFsssH7kwa6L_I-32" target="GBjzqEbFsssH7kwa6L_I-20" edge="1">
          <mxGeometry relative="1" as="geometry">
            <Array as="points">
              <mxPoint x="750" y="130" />
              <mxPoint x="670" y="130" />
              <mxPoint x="670" y="86" />
            </Array>
          </mxGeometry>
        </mxCell>
        <mxCell id="GBjzqEbFsssH7kwa6L_I-35" style="edgeStyle=orthogonalEdgeStyle;rounded=0;orthogonalLoop=1;jettySize=auto;html=1;entryX=1;entryY=0.5;entryDx=0;entryDy=0;dashed=1;" parent="1" source="GBjzqEbFsssH7kwa6L_I-32" target="GBjzqEbFsssH7kwa6L_I-21" edge="1">
          <mxGeometry relative="1" as="geometry" />
        </mxCell>
        <mxCell id="GBjzqEbFsssH7kwa6L_I-32" value="Supprimer un destinataire" style="ellipse;whiteSpace=wrap;html=1;" parent="1" vertex="1">
          <mxGeometry x="690" y="140" width="120" height="52" as="geometry" />
        </mxCell>
        <mxCell id="GBjzqEbFsssH7kwa6L_I-43" style="edgeStyle=orthogonalEdgeStyle;rounded=0;orthogonalLoop=1;jettySize=auto;html=1;entryX=1;entryY=0.5;entryDx=0;entryDy=0;dashed=1;" parent="1" source="GBjzqEbFsssH7kwa6L_I-42" target="GBjzqEbFsssH7kwa6L_I-14" edge="1">
          <mxGeometry relative="1" as="geometry" />
        </mxCell>
        <mxCell id="GBjzqEbFsssH7kwa6L_I-44" style="edgeStyle=orthogonalEdgeStyle;rounded=0;orthogonalLoop=1;jettySize=auto;html=1;entryX=1;entryY=0.5;entryDx=0;entryDy=0;dashed=1;" parent="1" source="GBjzqEbFsssH7kwa6L_I-42" target="GBjzqEbFsssH7kwa6L_I-17" edge="1">
          <mxGeometry relative="1" as="geometry" />
        </mxCell>
        <mxCell id="GBjzqEbFsssH7kwa6L_I-42" value="Supprimer le message ou la conversation" style="ellipse;whiteSpace=wrap;html=1;" parent="1" vertex="1">
          <mxGeometry x="690" y="318" width="120" height="52" as="geometry" />
        </mxCell>
        <mxCell id="zAWTuySF6jtsqshDQRT_-2" style="edgeStyle=orthogonalEdgeStyle;rounded=0;orthogonalLoop=1;jettySize=auto;html=1;entryX=1;entryY=0;entryDx=0;entryDy=0;dashed=1;" edge="1" parent="1" source="zAWTuySF6jtsqshDQRT_-1" target="GBjzqEbFsssH7kwa6L_I-14">
          <mxGeometry relative="1" as="geometry" />
        </mxCell>
        <mxCell id="zAWTuySF6jtsqshDQRT_-1" value="ajouter le destinataire au contact" style="ellipse;whiteSpace=wrap;html=1;" vertex="1" parent="1">
          <mxGeometry x="690" y="240" width="120" height="52" as="geometry" />
        </mxCell>
      </root>
    </mxGraphModel>
  </diagram>
</mxfile>
